<svg xmlns="http://www.w3.org/2000/svg" width="1000" height="780" viewBox="0 0 1000 780" font-family="sans-serif">
  <rect width="1000" height="780" fill="#0d1117"/>
  <text x="20" y="30" fill="#e6edf3" font-size="18" font-weight="bold">JSON再描画 (danjer_reading_v1 / 元画像未見想定) — 発言Claude</text>
  <text x="20" y="50" fill="#8b949e" font-size="12">tweet 1610281077565980673 / 2023-01-03 / JSONテキストのみから復元</text>

  <!-- ===== Panel 1: Daily ===== -->
  <text x="30" y="80" fill="#58a6ff" font-size="14" font-weight="bold">画像① BTCUSDT 日足 (Bybit/Coinglass)</text>
  <rect x="30" y="90" width="600" height="180" fill="#0a0e14" stroke="#30363d"/>
  <!-- price axis labels -->
  <text x="585" y="102" fill="#8b949e" font-size="10">40000</text>
  <text x="585" y="150" fill="#8b949e" font-size="10">24000</text>
  <text x="585" y="200" fill="#8b949e" font-size="10">18000</text>
  <text x="585" y="262" fill="#3fb950" font-size="10">16700</text>
  <!-- price line: 40k top-left -> lower highs -> 16.7k flat -->
  <polyline points="35,100 70,140 95,120 130,175 175,150 210,185 270,160 320,200 380,178 430,200 480,215 540,250 630,250"
            fill="none" stroke="#c9d1d9" stroke-width="2"/>
  <!-- red down-arrow over the lower highs -->
  <line x1="175" y1="150" x2="560" y2="245" stroke="#f85149" stroke-width="3"/>
  <polygon points="560,245 548,232 552,247 540,248" fill="#f85149"/>
  <text x="300" y="125" fill="#f85149" font-size="11">高値切り下げ 24k→21k→18k→16.7k</text>

  <!-- OI sub-panel -->
  <rect x="30" y="280" width="600" height="120" fill="#0a0e14" stroke="#30363d"/>
  <text x="35" y="296" fill="#8b949e" font-size="11">OpenInterest Kline 73.6K→76.3K</text>
  <polyline points="35,385 120,375 200,360 280,355 360,340 440,330 520,315 630,300"
            fill="none" stroke="#d29922" stroke-width="2"/>
  <!-- red up-arrow on OI -->
  <line x1="60" y1="388" x2="610" y2="305" stroke="#f85149" stroke-width="3"/>
  <polygon points="610,305 598,308 612,318 615,304" fill="#f85149"/>

  <!-- two green boxes spanning price+OI (price drop x OI buildup) -->
  <rect x="190" y="92" width="40" height="306" fill="none" stroke="#3fb950" stroke-width="3"/>
  <rect x="350" y="92" width="40" height="306" fill="none" stroke="#3fb950" stroke-width="3"/>
  <text x="240" y="415" fill="#3fb950" font-size="11">緑枠2箇所 = 価格急落 × OI積み上げ 同時 → ダイバージェンス</text>

  <!-- ===== Panel 3: Meme (right top) ===== -->
  <text x="670" y="80" fill="#58a6ff" font-size="14" font-weight="bold">画像③ ミーム</text>
  <rect x="670" y="90" width="300" height="200" fill="#0a0e14" stroke="#30363d"/>
  <!-- simple strongman icon -->
  <circle cx="820" cy="135" r="16" fill="#e6edf3"/>
  <path d="M790 175 Q820 150 850 175 L845 230 L795 230 Z" fill="#e6edf3"/>
  <path d="M790 178 Q762 168 772 200" fill="none" stroke="#e6edf3" stroke-width="10"/>
  <path d="M850 178 Q878 168 868 200" fill="none" stroke="#e6edf3" stroke-width="10"/>
  <text x="700" y="270" fill="#8b949e" font-size="12">「パワー溜め込み」の比喩</text>
  <text x="700" y="288" fill="#6e7681" font-size="11">(写真ミーム / テクニカル情報なし)</text>

  <!-- ===== Data box (right) ===== -->
  <rect x="670" y="305" width="300" height="155" fill="#0a0e14" stroke="#30363d"/>
  <text x="680" y="325" fill="#58a6ff" font-size="12" font-weight="bold">market_snapshot (JSONより)</text>
  <text x="680" y="345" fill="#c9d1d9" font-size="11">確定足 2023-01-02: C 16,672.87 / V 121,889</text>
  <text x="680" y="363" fill="#c9d1d9" font-size="11">投稿時 ≈ 16,675</text>
  <text x="680" y="381" fill="#c9d1d9" font-size="11">FR (01-03 08:00確定) = +0.009% 中立</text>
  <text x="680" y="399" fill="#c9d1d9" font-size="11">OI ≈ 76K (史上最高)</text>
  <text x="680" y="417" fill="#8b949e" font-size="11">LS比率 / 清算 = ローカル無 (N/A)</text>
  <text x="680" y="441" fill="#3fb950" font-size="11">予想: ショート史上最大蓄積+FR中立</text>
  <text x="680" y="455" fill="#3fb950" font-size="11">→ ボラ拡大前兆 / ブレイク待ち</text>

  <!-- ===== Panel 2: Weekly ===== -->
  <text x="30" y="455" fill="#58a6ff" font-size="14" font-weight="bold">画像② BTCUSDT 週足 (Bybit/Coinglass)</text>
  <rect x="30" y="465" width="600" height="180" fill="#0a0e14" stroke="#30363d"/>
  <text x="585" y="490" fill="#8b949e" font-size="10">69000</text>
  <text x="585" y="635" fill="#3fb950" font-size="10">16700</text>
  <!-- weekly price: rise to 69k top then long decline to 16.7k -->
  <polyline points="35,620 90,560 140,500 175,485 220,520 270,495 330,540 390,575 450,600 510,615 570,628 630,628"
            fill="none" stroke="#c9d1d9" stroke-width="2"/>
  <!-- big red down-arrow 69k -> 16.7k -->
  <line x1="180" y1="490" x2="600" y2="625" stroke="#f85149" stroke-width="4"/>
  <polygon points="600,625 586,616 594,628 582,632" fill="#f85149"/>

  <!-- weekly OI sub -->
  <rect x="30" y="655" width="600" height="105" fill="#0a0e14" stroke="#30363d"/>
  <text x="35" y="671" fill="#8b949e" font-size="11">OI 過去最強 76.256K</text>
  <polyline points="35,748 150,742 280,735 400,720 500,700 630,668"
            fill="none" stroke="#d29922" stroke-width="2"/>
  <line x1="60" y1="750" x2="615" y2="672" stroke="#f85149" stroke-width="3"/>
  <polygon points="615,672 603,675 617,685 620,671" fill="#f85149"/>
  <text x="250" y="745" fill="#3fb950" font-size="11">底値圏 × OI史上最高 = 週足もダイバ</text>
</svg>
